# xmcd
#
# Track frame offsets:
#	150
#	19136
#	39735
#	61695
#	88092
#	111771
#	135364
#	159466
#	183680
#	205225
#
# Disc length: 3072 seconds
#
# Revision: 1
# Processed by: cddbd v1.5PL3 Copyright (c) Steve Scherf et al.
# Submitted via: CDex 1.50Beta5
#
DISCID=820bfe0a
DTITLE=佐藤竹善 - FACT OF LIFE
DYEAR=1999
DGENRE=New Age
TTITLE0=僕が希むしあわせの形
TTITLE1=WIND OF CHANGE
TTITLE2=BACK IN LOVE
TTITLE3=ECHOES
TTITLE4=夢みたものは
TTITLE5=WHAT MORE CAN I TELL YOU
TTITLE6=LET ME IN
TTITLE7=MY HUMBLE WISH
TTITLE8=十三夜の月
TTITLE9=EARTHBOUND
EXTD=
EXTT0=
EXTT1=
EXTT2=
EXTT3=
EXTT4=
EXTT5=
EXTT6=
EXTT7=
EXTT8=
EXTT9=
PLAYORDER=
